<?xml version="1.0" encoding="utf-8"?>
<!-- Generator: Adobe Illustrator 26.0.2, SVG Export Plug-In . SVG Version: 6.00 Build 0)  -->
<svg version="1.1" xmlns="http://www.w3.org/2000/svg" xmlns:xlink="http://www.w3.org/1999/xlink" x="0px" y="0px"
	 viewBox="0 0 800 800" style="enable-background:new 0 0 800 800;" xml:space="preserve">
<style type="text/css">
	.st0{fill:#F5B38A;stroke:#F5B38A;stroke-miterlimit:10;}
	.st1{fill:#F5CFAE;stroke:#F5CFAE;stroke-miterlimit:10;}
	.st2{fill:#273B4B;stroke:#273B4B;stroke-miterlimit:10;}
	.st3{fill:#EBEBEB;stroke:#EBEBEB;stroke-miterlimit:10;}
	.st4{opacity:8.000000e-02;stroke:#1D1D1B;stroke-miterlimit:10;}
	.st5{fill:#0C0A09;stroke:#0C0A09;stroke-miterlimit:10;}
	.st6{fill:#5429CF;stroke:#5429CF;stroke-miterlimit:10;}
	.st7{fill:#1C1C1C;stroke:#1C1C1C;stroke-miterlimit:10;}
	.st8{fill:#FFFFFF;}
	.st9{font-family:'Montserrat-Light';}
	.st10{font-size:40px;}
	.st11{fill-rule:evenodd;clip-rule:evenodd;fill:#FFFFFF;}
</style>
<g id="Main">
	<path class="st0" d="M632.1,586.8c0,0-3.9-6.2-3.7-12s4.9-26.8,3.7-41.6c-1.2-14.8-1.2-87.7-9.5-109.6c-3.6-17.2-7.7-43.9-7.7-48.6
		c0-4.7,1.2-50.4-6.5-59.3c-7.7-8.9-17.2-19-27.9-27.3c-10.7-8.3-14.7-54.1-24-54.4c-9.3-0.3-20.7,3.4-23.4,8.7
		c-2.7,5.3-9.3,85.3-1,91.3c8.3,5.9,14.1,13,12,17.2c-2.1,4.1-3.6,32.9-1.8,44.4c-13.3-10.7-296-216-320-183.1
		c-33.8,39.1,48,84.4,48,84.4l104.9,302.8c0,0,36.7,38.5,59.3,48.6s48.3,24,56.6,35.9C511.5,671.2,632.1,586.8,632.1,586.8z"/>
	<path class="st1" d="M556.8,234.8c0,0,9.1,43.8,13.3,44.4c4.2,0.7,4.7-0.4,4.7-0.4s-10.7-42.6-18.2-44.7"/>
	<polygon class="st2" points="479.2,729.9 670.3,600.1 799.8,791.5 799.8,799.8 524.6,799.7 	"/>
	<polygon class="st3" points="490.8,721 471.2,691.2 635.2,580.1 654.8,610.8 	"/>
</g>
<g id="Ombres">
	<path class="st4" d="M361,592.1c0,0,24.9,49.8,104,92.4c3.3,6.3,4.3,8.3,4.2,8.3c-0.2,0-18.3,9.9-18.3,9.9l18.8,32l-13.8,7.6
		l31.6,57.6h53.1l124-0.2l-111-164.6c0,0-38.4,31.3-71.3,23.7s-67.1-13.8-94.2-46.7c18.2-1.3,101.3-11.6,101.3-11.6L361,592.1z"/>
	<path class="st4" d="M529.9,387.4c0,0,8.3,7.7,12.4,8.3c-2.4,5-8.9,16.9-10.4,26.1C530.2,412.6,529.9,387.4,529.9,387.4z"/>
	<path class="st4" d="M542.6,342.6c2.4-0.6,8.3,3.9,12.4,3.6c-3.6,4.7-11.6,40.6-11.6,48.9c-2.1-12.4,0-43.9,1.2-47.1
		C542.9,345,542.6,342.6,542.6,342.6z"/>
</g>
<g id="Téléphone">
	<path class="st5" d="M292.1,78.3h210.7c16.4,0,29.8,13.3,29.8,29.8v464c0,16.4-13.3,29.8-29.8,29.8H292.1
		c-16.4,0-29.8-13.3-29.8-29.8v-464C262.3,91.7,275.7,78.3,292.1,78.3z"/>
	<path class="st6" d="M280.3,106.8H515c6.6,0,12,5.4,12,12v416.9c0,6.6-5.4,12-12,12H280.3c-6.6,0-12-5.4-12-12V118.8
		C268.3,112.2,273.7,106.8,280.3,106.8z"/>
	<circle class="st7" cx="397" cy="574.1" r="18"/>
	<text transform="matrix(1 0 0 1 306.6147 462.3334)" class="st8 st9 st10">Neo’Park</text>
	<g>
		<g>
			<path class="st11" d="M340.5,291.7l13.9-33.5c2.8-3.4,6.7-5.4,12-6.6h57.1c5.4,1.1,9.4,3.2,12.2,6.6l13.9,33.5
				c9.2,0,16.9,7.5,16.9,16.7v41.4h-10.9v8.6c0,3.7-3,6.9-6.9,6.9h-14.6c-3.7,0-6.9-3.2-6.9-6.9v-8.6h-64.2v8.6c0,3.7-3,6.9-6.7,6.9
				h-14.8c-3.7,0-6.9-3.2-6.9-6.9v-8.6h-10.7v-41.4C323.7,299.2,331.2,291.7,340.5,291.7L340.5,291.7z M366.5,263.3
				c-1.7,0.6-3.2,1.5-4.3,3.7l-9.4,24.7h84.3l-9.5-24.7c-1.1-2.2-2.6-3.2-4.1-3.7L366.5,263.3L366.5,263.3z M441.2,302
				c-5.2,0-9.4,4.3-9.4,9.4c0,5.2,4.1,9.5,9.4,9.5s9.4-4.3,9.4-9.5C450.6,306.3,446.5,302,441.2,302L441.2,302z M348.6,302
				c5.2,0,9.5,4.3,9.5,9.4c0,5.2-4.3,9.5-9.5,9.5c-5.1,0-9.4-4.3-9.4-9.5C339.2,306.3,343.5,302,348.6,302L348.6,302z"/>
		</g>
	</g>
</g>
<g id="Doigts">
	<path class="st0" d="M253.6,306.1c0,0-31.7-10.4-37.6,19.3c-5.9,29.6,16.6,45.6,26.7,47.4c10.1,1.8,32,0.6,33.2-24.3
		C275.8,348.5,272.6,309.4,253.6,306.1z"/>
	<path class="st1" d="M237.5,360.7c0,0-0.1-21.2,25.3-30.3c-12.4-6.5-13.8-10.6-28.2-3.5S235.5,358.6,237.5,360.7z"/>
	<path class="st0" d="M218,388.2c12.1-18.7,28.7-12.4,47.1,1.2c18.4,13.6,28.4,21.6,20.1,42.4c-8.3,20.7-32,16-55.1-6.5
		S218,388.2,218,388.2z"/>
	<path class="st1" d="M244.1,407.7c3.6-7.4,14.8-14.8,36.7,1.8c-5.9,11.3-12.4,25.8-17.5,30.2C255.7,434.7,236.7,422.9,244.1,407.7z
		"/>
	<path class="st0" d="M221.3,452.5c5.2-14.2,30.8-19.6,64.3,20.1c8,11-8,35-22.8,27.9C248,493.4,210.6,481.8,221.3,452.5z"/>
	<path class="st1" d="M252.7,472.6c6.2-9.8,16-7.4,28.7,1.8c-3,11.9-11.9,23.6-11.9,23.6s-24.7-14.7-16.8-25.6"/>
</g>
</svg>
