<?xml version="1.0" encoding="utf-8"?>
<!-- Generator: Adobe Illustrator 26.0.2, SVG Export Plug-In . SVG Version: 6.00 Build 0)  -->
<svg version="1.1" id="Calque_1" xmlns="http://www.w3.org/2000/svg" xmlns:xlink="http://www.w3.org/1999/xlink" x="0px" y="0px"
	 viewBox="0 0 700 700" style="enable-background:new 0 0 700 700;" xml:space="preserve">
<style type="text/css">
	.st0{fill:#FFFFFF;}
</style>
<g>
	<path class="st0" d="M137.2,187.6c-12.2,0-22.4,10.2-22.4,22.4v280c0,12.2,10.2,22.4,22.4,22.4h425.6c12.2,0,22.4-10.2,22.4-22.4
		V210c0-12.2-10.2-22.4-22.4-22.4L137.2,187.6z M148.4,210h403.2L359.1,391.5c-4.3,4.1-13.9,4.1-18.2,0L148.4,210z M137.2,230.3
		l130.9,123.2L137.2,475.3L137.2,230.3z M562.8,230.3v245L431.9,353.5L562.8,230.3z M284.4,368.9l41.1,38.9
		c13.7,12.9,35.3,12.9,49,0l41.1-38.9l130,121.1H154.3L284.4,368.9L284.4,368.9z"/>
</g>
</svg>
