<svg id="Calque_1" data-name="Calque 1" xmlns="http://www.w3.org/2000/svg" xmlns:xlink="http://www.w3.org/1999/xlink" viewBox="0 0 764.5 541.72"><defs><style>.cls-1,.cls-5{fill:#494394;}.cls-2{fill:#201d31;}.cls-3{fill:#fffbfb;}.cls-4,.cls-44,.cls-48{fill:none;}.cls-4{stroke:#201d31;}.cls-18,.cls-19,.cls-20,.cls-23,.cls-24,.cls-25,.cls-33,.cls-35,.cls-4,.cls-43,.cls-44,.cls-45,.cls-46,.cls-47,.cls-48{stroke-miterlimit:10;}.cls-5{opacity:0.9;}.cls-6{fill:url(#Dégradé_sans_nom_41);}.cls-7{fill:url(#Dégradé_sans_nom_41-2);}.cls-8{fill:url(#Dégradé_sans_nom_72);}.cls-9{fill:url(#Dégradé_sans_nom_72-2);}.cls-10{fill:url(#Dégradé_sans_nom_72-3);}.cls-11{fill:url(#Dégradé_sans_nom_72-4);}.cls-12{fill:url(#Dégradé_sans_nom_72-5);}.cls-13{fill:url(#Dégradé_sans_nom_72-6);}.cls-14{fill:url(#Dégradé_sans_nom_72-7);}.cls-15{fill:url(#Dégradé_sans_nom_72-8);}.cls-16{fill:#f2f1f7;}.cls-17{fill:url(#Dégradé_sans_nom_82);}.cls-18{fill:#171b2e;stroke:#171b2e;}.cls-19{fill:#343853;}.cls-19,.cls-24{stroke:#282839;}.cls-20,.cls-25,.cls-29{fill:#fff;}.cls-20{stroke:#f9f9f9;}.cls-21{fill:url(#Dégradé_sans_nom_79);}.cls-22{fill:url(#Dégradé_sans_nom_82-2);}.cls-23{fill:#3c415d;stroke:#3c415d;}.cls-24,.cls-30{fill:#282839;}.cls-25,.cls-35{stroke:#fff;}.cls-26{fill:url(#Dégradé_sans_nom_41-3);}.cls-27{fill:url(#Dégradé_sans_nom_41-4);}.cls-28{fill:#f5f5f5;}.cls-31{fill:url(#Dégradé_sans_nom_72-9);}.cls-32{fill:url(#Dégradé_sans_nom_72-10);}.cls-33{fill:#141229;stroke:#141229;}.cls-34{fill:url(#Dégradé_sans_nom_72-11);}.cls-35{fill:#f9f9f9;}.cls-36{fill:url(#Dégradé_sans_nom_72-12);}.cls-37{fill:url(#Dégradé_sans_nom_72-13);}.cls-38{fill:url(#Dégradé_sans_nom_72-14);}.cls-39{fill:url(#Dégradé_sans_nom_72-15);}.cls-40{fill:url(#Dégradé_sans_nom_72-16);}.cls-41{fill:url(#Dégradé_sans_nom_72-17);}.cls-42{fill:url(#Dégradé_sans_nom_115);}.cls-43{fill:#b56ba8;stroke:#b56ba8;}.cls-44,.cls-45{stroke:#c68abc;}.cls-44{stroke-width:7px;}.cls-45{fill:#c68abc;}.cls-46{fill:#b5b8c3;stroke:#b5b8c3;}.cls-47{fill:#f0f4e5;}.cls-47,.cls-48{stroke:#f0f4e5;}.cls-48{stroke-width:3px;}</style><linearGradient id="Dégradé_sans_nom_41" x1="433.6" y1="426.32" x2="654.05" y2="426.32" gradientTransform="matrix(1, 0, 0, -1, -340.7, 852.63)" gradientUnits="userSpaceOnUse"><stop offset="0" stop-color="#494394"/><stop offset="0.47" stop-color="#613d90"/><stop offset="1" stop-color="#81358a"/></linearGradient><linearGradient id="Dégradé_sans_nom_41-2" x1="469.75" y1="379.4" x2="476.42" y2="379.4" gradientTransform="matrix(-1, 0, 0, 1, 710.19, -0.64)" xlink:href="#Dégradé_sans_nom_41"/><linearGradient id="Dégradé_sans_nom_72" x1="340.47" y1="269.82" x2="-106.08" y2="23.48" gradientTransform="matrix(-1, 0, 0, 1, 746.94, 0)" gradientUnits="userSpaceOnUse"><stop offset="0" stop-color="#494394"/><stop offset="1" stop-color="#81358a"/></linearGradient><linearGradient id="Dégradé_sans_nom_72-2" x1="184.19" y1="361.81" x2="209.08" y2="361.81" gradientTransform="matrix(-1, 0, 0, 1, 710.19, -0.64)" xlink:href="#Dégradé_sans_nom_72"/><linearGradient id="Dégradé_sans_nom_72-3" x1="269.25" y1="291.31" x2="302.14" y2="291.31" gradientTransform="matrix(-1, 0, 0, 1, 710.19, -0.64)" xlink:href="#Dégradé_sans_nom_72"/><linearGradient id="Dégradé_sans_nom_72-4" x1="310.58" y1="317.53" x2="326.58" y2="317.53" gradientTransform="matrix(-1, 0, 0, 1, 710.19, -0.64)" xlink:href="#Dégradé_sans_nom_72"/><linearGradient id="Dégradé_sans_nom_72-5" x1="443.03" y1="261.53" x2="459.92" y2="261.53" gradientTransform="matrix(-1, 0, 0, 1, 710.19, -0.64)" xlink:href="#Dégradé_sans_nom_72"/><linearGradient id="Dégradé_sans_nom_72-6" x1="578.29" y1="99.6" x2="596.06" y2="99.6" gradientTransform="matrix(-1, 0, 0, 1, 710.19, -0.64)" xlink:href="#Dégradé_sans_nom_72"/><linearGradient id="Dégradé_sans_nom_72-7" x1="500.44" y1="33.01" x2="532.44" y2="33.01" gradientTransform="matrix(-1, 0, 0, 1, 710.19, -0.64)" xlink:href="#Dégradé_sans_nom_72"/><linearGradient id="Dégradé_sans_nom_72-8" x1="-54.31" y1="468.66" x2="-12.27" y2="468.66" xlink:href="#Dégradé_sans_nom_72"/><linearGradient id="Dégradé_sans_nom_82" x1="532.1" y1="224.66" x2="576.8" y2="248.3" gradientTransform="matrix(-1, 0, 0, 1, 746.94, 0)" gradientUnits="userSpaceOnUse"><stop offset="0" stop-color="#494394"/><stop offset="0.11" stop-color="#4f4998"/><stop offset="0.25" stop-color="#605ba1"/><stop offset="0.42" stop-color="#7c77b2"/><stop offset="0.6" stop-color="#a3a0c9"/><stop offset="0.79" stop-color="#d4d2e6"/><stop offset="0.94" stop-color="#fff"/></linearGradient><linearGradient id="Dégradé_sans_nom_79" x1="567.31" y1="237.33" x2="599.44" y2="255.91" gradientTransform="matrix(-1, 0, 0, 1, 746.94, 0)" gradientUnits="userSpaceOnUse"><stop offset="0" stop-color="#494394"/><stop offset="0.16" stop-color="#615ca2"/><stop offset="0.51" stop-color="#9e9bc6"/><stop offset="1" stop-color="#fff"/></linearGradient><linearGradient id="Dégradé_sans_nom_82-2" x1="544.15" y1="273.19" x2="617.9" y2="312.19" gradientTransform="matrix(-1, 0, 0, 1, 710.19, -0.64)" xlink:href="#Dégradé_sans_nom_82"/><linearGradient id="Dégradé_sans_nom_41-3" x1="618.51" y1="308.79" x2="663.32" y2="308.79" gradientTransform="matrix(-1, 0, 0, 1, 710.19, -0.64)" xlink:href="#Dégradé_sans_nom_41"/><linearGradient id="Dégradé_sans_nom_41-4" x1="593.25" y1="328.64" x2="659.18" y2="328.64" gradientTransform="matrix(1, 0, 0, -1, -505.48, 657.28)" xlink:href="#Dégradé_sans_nom_41"/><linearGradient id="Dégradé_sans_nom_72-9" x1="511.93" y1="305.58" x2="527.32" y2="305.58" xlink:href="#Dégradé_sans_nom_72"/><linearGradient id="Dégradé_sans_nom_72-10" x1="171.42" y1="78.38" x2="109.44" y2="128.76" gradientTransform="matrix(-0.99, 0.14, 0.14, 0.99, 729.19, -10.59)" xlink:href="#Dégradé_sans_nom_72"/><linearGradient id="Dégradé_sans_nom_72-11" x1="183.39" y1="57.39" x2="205.72" y2="57.39" gradientTransform="matrix(-0.99, 0.14, 0.14, 0.99, 692.44, -11.23)" xlink:href="#Dégradé_sans_nom_72"/><linearGradient id="Dégradé_sans_nom_72-12" x1="227.16" y1="19.29" x2="255.76" y2="19.29" gradientTransform="matrix(-0.99, 0.14, 0.14, 0.99, 729.19, -10.59)" xlink:href="#Dégradé_sans_nom_72"/><linearGradient id="Dégradé_sans_nom_72-13" x1="167.28" y1="45.58" x2="201.06" y2="45.58" gradientTransform="matrix(-0.99, 0.14, 0.14, 0.99, 729.19, -10.59)" xlink:href="#Dégradé_sans_nom_72"/><linearGradient id="Dégradé_sans_nom_72-14" x1="189.96" y1="71.36" x2="219" y2="71.36" gradientTransform="matrix(-0.99, 0.14, 0.14, 0.99, 729.19, -10.59)" xlink:href="#Dégradé_sans_nom_72"/><linearGradient id="Dégradé_sans_nom_72-15" x1="180.91" y1="57.95" x2="207.87" y2="57.95" gradientTransform="matrix(-0.99, 0.14, 0.14, 0.99, 729.19, -10.59)" xlink:href="#Dégradé_sans_nom_72"/><linearGradient id="Dégradé_sans_nom_72-16" x1="210.06" y1="40.58" x2="220.28" y2="40.58" gradientTransform="matrix(-1, 0, 0, 1, 736.98, 19.1)" xlink:href="#Dégradé_sans_nom_72"/><linearGradient id="Dégradé_sans_nom_72-17" x1="220.39" y1="29.58" x2="236.84" y2="29.58" gradientTransform="matrix(-0.99, 0.14, 0.14, 0.99, 692.44, -11.23)" xlink:href="#Dégradé_sans_nom_72"/><linearGradient id="Dégradé_sans_nom_115" x1="191.01" y1="60.81" x2="178.56" y2="70.93" gradientTransform="matrix(-0.99, 0.14, 0.14, 0.99, 729.19, -10.59)" gradientUnits="userSpaceOnUse"><stop offset="0.01" stop-color="#463b8e"/><stop offset="0.29" stop-color="#7b74af"/><stop offset="0.94" stop-color="#fff"/></linearGradient></defs><rect class="cls-1" x="36.75" y="497.92" width="266.67" height="44.44" rx="6.22" transform="translate(303.42 1039.64) rotate(-180)"/><path class="cls-2" d="M75,497.86v44.45h39.11V497.86Zm12.44,21.78a8,8,0,1,1,8,8A8,8,0,0,1,87.41,519.64Z" transform="translate(-36.75 -0.64)"/><rect class="cls-2" x="59.86" y="448.36" width="226.22" height="50.15" rx="2.89" transform="translate(309.19 946.23) rotate(-180)"/><path class="cls-3" d="M66.53,451.69H286.08a0,0,0,0,1,0,0v42.07a0,0,0,0,1,0,0H66.53a2.22,2.22,0,0,1-2.22-2.22V453.92A2.22,2.22,0,0,1,66.53,451.69Z" transform="translate(313.64 944.82) rotate(-180)"/><polygon class="cls-2" points="116.04 484.91 97.7 484.91 97.7 514.35 107.37 501.35 116.04 514.24 116.04 484.91"/><line class="cls-4" x1="118.89" y1="484.76" x2="94.37" y2="484.76"/><rect class="cls-5" x="64.31" y="451.69" width="6.89" height="42.07" transform="translate(98.75 944.82) rotate(-180)"/><rect class="cls-6" x="92.9" y="404.09" width="220.44" height="44.44" rx="6.22" transform="translate(369.49 851.99) rotate(-180)"/><rect class="cls-2" x="266.86" y="404.03" width="4.33" height="44.22" transform="translate(501.31 851.64) rotate(-180)"/><rect class="cls-2" x="256.86" y="404.12" width="4.33" height="44.22" transform="translate(481.31 851.82) rotate(-180)"/><rect class="cls-2" x="18.67" y="354.39" width="226.22" height="50.15" rx="2.89"/><path class="cls-3" d="M20.89,357.72H240.44a0,0,0,0,1,0,0V399.8a0,0,0,0,1,0,0H20.89a2.22,2.22,0,0,1-2.22-2.22V359.94a2.22,2.22,0,0,1,2.22-2.22Z"/><polygon class="cls-2" points="151.96 391.57 170.3 391.57 170.3 421.02 160.63 408.02 151.96 420.91 151.96 391.57"/><line class="cls-4" x1="149.11" y1="391.43" x2="173.63" y2="391.43"/><rect class="cls-7" x="233.78" y="357.72" width="6.67" height="42.07"/><path class="cls-8" d="M801.25,396.19V.64H270.58s48.89,23.11,48.89,49.78-1.78,48-43.55,48-56.89,9.77-69.34,40.89-.89,55.11-3.55,62.22-24,24.89-24,24.89l2.66,21.33s19.56-5.33,36.45,0,17.78,10.67,38.22-1.78c13.33-16,10.67-34.66,36.45-42.66s73.77,30.22,73.77,30.22,27.56,22.22,54.23,21.33c42.66-.89,123.55-30.22,149.33-17.78s42.67,30.23,48.89,59.56,3.85,47.41,35.26,73.48,71.85,33.63,103.4,32.74S801.25,396.19,801.25,396.19Z" transform="translate(-36.75 -0.64)"/><circle class="cls-9" cx="513.56" cy="361.17" r="12.44"/><circle class="cls-10" cx="424.5" cy="290.67" r="16.44"/><circle class="cls-11" cx="391.61" cy="316.89" r="8"/><circle class="cls-12" cx="258.72" cy="260.89" r="8.44"/><circle class="cls-13" cx="123.02" cy="98.96" r="8.89"/><circle class="cls-14" cx="193.76" cy="32.37" r="16"/><path class="cls-15" d="M801.25,438.86v59.56s-18.22,5.77-35.56-11.56S770.14,438,780.81,438,801.25,438.86,801.25,438.86Z" transform="translate(-36.75 -0.64)"/><path class="cls-16" d="M766.42,127.36s-5.06-4.83-5.78-8c0,0-3.7,7.41-5.48,8.15,1.78,1.78,5.18,5.93,5.33,9.18C761.14,132.31,766.42,127.36,766.42,127.36Z" transform="translate(-36.75 -0.64)"/><path class="cls-16" d="M777.55,254.12s-3.33-3.18-3.8-5.26c0,0-2.44,4.87-3.61,5.36,1.17,1.17,3.41,3.9,3.51,6C774.07,257.38,777.55,254.12,777.55,254.12Z" transform="translate(-36.75 -0.64)"/><path class="cls-16" d="M651.18,280.85s-4.86-4.65-5.56-7.69c0,0-3.56,7.12-5.27,7.83,1.71,1.71,5,5.7,5.13,8.83C646.1,285.6,651.18,280.85,651.18,280.85Z" transform="translate(-36.75 -0.64)"/><path class="cls-16" d="M676,253s-3.5-3.34-4-5.53c0,0-2.56,5.12-3.79,5.63,1.23,1.23,3.59,4.1,3.69,6.35C672.35,256.37,676,253,676,253Z" transform="translate(-36.75 -0.64)"/><path class="cls-16" d="M725.29,321.66s-5-3.34-5.74-5.53c0,0-3.68,5.12-5.45,5.63,1.77,1.23,5.15,4.1,5.3,6.35C720,325.08,725.29,321.66,725.29,321.66Z" transform="translate(-36.75 -0.64)"/><path class="cls-16" d="M547,156.92s-5-3.34-5.74-5.53c0,0-3.68,5.12-5.45,5.63,1.77,1.23,5.16,4.1,5.3,6.35C541.75,160.34,547,156.92,547,156.92Z" transform="translate(-36.75 -0.64)"/><path class="cls-16" d="M584.33,88s-6-4-6.83-6.58c0,0-4.37,6.09-6.47,6.7,2.1,1.46,6.12,4.87,6.3,7.54C578.09,92.1,584.33,88,584.33,88Z" transform="translate(-36.75 -0.64)"/><path class="cls-16" d="M677.82,33s-6-4-6.82-6.57c0,0-4.37,6.08-6.47,6.69,2.1,1.46,6.12,4.87,6.3,7.55C671.59,37,677.82,33,677.82,33Z" transform="translate(-36.75 -0.64)"/><path class="cls-16" d="M748.7,23.49s-3.36-2.23-3.84-3.7c0,0-2.46,3.43-3.64,3.77,1.18.82,3.44,2.74,3.54,4.24C745.19,25.77,748.7,23.49,748.7,23.49Z" transform="translate(-36.75 -0.64)"/><path class="cls-16" d="M635.73,240.26s-3.36-2.24-3.84-3.7c0,0-2.46,3.42-3.64,3.77,1.18.82,3.45,2.73,3.54,4.24C632.22,242.54,635.73,240.26,635.73,240.26Z" transform="translate(-36.75 -0.64)"/><path class="cls-16" d="M746,141.37s-5.25-3.49-6-5.77c0,0-3.84,5.35-5.69,5.88,1.85,1.28,5.38,4.28,5.54,6.63C740.55,144.94,746,141.37,746,141.37Z" transform="translate(-36.75 -0.64)"/><path class="cls-16" d="M360.57,49.64s-5.24-3.49-6-5.78c0,0-3.85,5.35-5.69,5.89,1.84,1.28,5.38,4.27,5.53,6.63C355.1,53.21,360.57,49.64,360.57,49.64Z" transform="translate(-36.75 -0.64)"/><path class="cls-16" d="M387.83,213.86s-3.15-2.1-3.6-3.48c0,0-2.31,3.22-3.42,3.54,1.11.77,3.23,2.57,3.32,4C384.54,216,387.83,213.86,387.83,213.86Z" transform="translate(-36.75 -0.64)"/><path class="cls-16" d="M416.62,136.94s-3.16-2.1-3.61-3.47c0,0-2.31,3.21-3.42,3.54,1.11.77,3.23,2.57,3.33,4C413.32,139.09,416.62,136.94,416.62,136.94Z" transform="translate(-36.75 -0.64)"/><path class="cls-16" d="M516.47,48.05s-3.16-2.1-3.61-3.47c0,0-2.31,3.22-3.42,3.54,1.11.77,3.24,2.57,3.33,4C513.17,50.2,516.47,48.05,516.47,48.05Z" transform="translate(-36.75 -0.64)"/><path class="cls-16" d="M483,229.39s-3.16-2.1-3.61-3.48c0,0-2.31,3.22-3.42,3.54,1.11.77,3.23,2.57,3.33,4C479.69,231.53,483,229.39,483,229.39Z" transform="translate(-36.75 -0.64)"/><path class="cls-16" d="M432.62,74.57s-3.16-2.1-3.61-3.47c0,0-2.31,3.21-3.42,3.54,1.11.77,3.23,2.57,3.33,4C429.32,76.72,432.62,74.57,432.62,74.57Z" transform="translate(-36.75 -0.64)"/><path class="cls-16" d="M701.91,152.16s-5.25-3.49-6-5.78c0,0-3.84,5.35-5.69,5.88,1.85,1.29,5.38,4.28,5.54,6.64C696.43,155.73,701.91,152.16,701.91,152.16Z" transform="translate(-36.75 -0.64)"/><path class="cls-16" d="M701.32,73s-2.77-1.84-3.16-3c0,0-2,2.81-3,3.09,1,.68,2.84,2.26,2.92,3.49C698.43,74.86,701.32,73,701.32,73Z" transform="translate(-36.75 -0.64)"/><path class="cls-16" d="M526.1,197.72s-2.76-1.84-3.15-3c0,0-2,2.81-3,3.1,1,.67,2.84,2.25,2.92,3.49C523.22,199.6,526.1,197.72,526.1,197.72Z" transform="translate(-36.75 -0.64)"/><path class="cls-16" d="M642.55,158.16s-2.76-1.83-3.16-3c0,0-2,2.82-3,3.1,1,.68,2.83,2.25,2.91,3.49C639.66,160,642.55,158.16,642.55,158.16Z" transform="translate(-36.75 -0.64)"/><path class="cls-16" d="M466.55,23.5s-2.76-1.84-3.16-3c0,0-2,2.81-3,3.09,1,.68,2.83,2.25,2.91,3.49C463.66,25.38,466.55,23.5,466.55,23.5Z" transform="translate(-36.75 -0.64)"/><path class="cls-16" d="M358.5,159.05s-5.25-3.49-6-5.78c0,0-3.84,5.35-5.69,5.88,1.85,1.29,5.39,4.28,5.54,6.64C353,162.62,358.5,159.05,358.5,159.05Z" transform="translate(-36.75 -0.64)"/><path class="cls-16" d="M294.2,123.79s-5.24-3.49-6-5.78c0,0-3.85,5.35-5.69,5.88,1.84,1.29,5.38,4.28,5.53,6.64C288.73,127.36,294.2,123.79,294.2,123.79Z" transform="translate(-36.75 -0.64)"/><path class="cls-16" d="M301.46,174.34s-3.63-2.41-4.15-4c0,0-2.66,3.7-3.94,4.07,1.28.89,3.73,3,3.84,4.59C297.67,176.82,301.46,174.34,301.46,174.34Z" transform="translate(-36.75 -0.64)"/><path class="cls-16" d="M257,149.94s-3.63-2.42-4.15-4c0,0-2.66,3.7-3.94,4.07,1.28.89,3.73,3,3.84,4.59C253.16,152.41,257,149.94,257,149.94Z" transform="translate(-36.75 -0.64)"/><path class="cls-16" d="M261.11,199.09s-4.07,1.57-5.66,1.08c0,0,1.48,4.31,1,5.56,1.47-.52,4.57-1.32,6-.46C260.93,203.62,261.11,199.09,261.11,199.09Z" transform="translate(-36.75 -0.64)"/><path class="cls-16" d="M215.45,221.27s-4.07,1.57-5.66,1.08c0,0,1.48,4.31,1,5.56,1.46-.52,4.57-1.32,6-.46C215.27,225.8,215.45,221.27,215.45,221.27Z" transform="translate(-36.75 -0.64)"/><path class="cls-17" d="M218.14,247.75,199,208.19,177,227.53l4.74,20.22S209.05,246.81,218.14,247.75Z" transform="translate(-36.75 -0.64)"/><path class="cls-18" d="M141.14,418.75l-.22,8.11-35,1.56s-4-3.23,2.77-6.78S133.58,416,138,415.75,141.14,418.75,141.14,418.75Z" transform="translate(-36.75 -0.64)"/><path class="cls-18" d="M103.42,416.42l-.23,8.11-35,1.56s-4-3.22,2.78-6.78,24.89-5.66,29.34-5.89S103.42,416.42,103.42,416.42Z" transform="translate(-36.75 -0.64)"/><path class="cls-19" d="M176,323s.23,26-4.66,27.78-58.1-2.36-60.77,1c.23,4-3.89,61.67-13.55,61.33-9.13-.31-7.78-44.66-7.24-62.08a19.24,19.24,0,0,0-.27-2.47c-1.31-15.12,5-17.64,18.72-19.75,13.77-.44,30-.44,30-.44l.44-4.67Z" transform="translate(-36.75 -0.64)"/><path class="cls-19" d="M198.69,324.86s.23,26-4.66,27.78-55.56-2.67-58.22.67c.22,4,9.55,58.88-1.34,60.22-8.32,1-19.78-43.34-22-60.67-.11-.86-.2-1.69-.27-2.48-1.31-15.12,5-17.63,18.72-19.74,13.77-.45,30-.45,30-.45l.44-4.66Z" transform="translate(-36.75 -0.64)"/><ellipse class="cls-20" cx="92.43" cy="319.74" rx="9.11" ry="3.33"/><path class="cls-21" d="M184.69,260.69s-2.16-10.11-2.63-13.5-.92-23.16-.92-23.16l-33.56,4.66s1.78,18,5.11,20.67c2.67,5.11,3.56,11.33,9.34,11.33s7.33-1.55,8.44,0,2.89,7.45,2.89,7.45Z" transform="translate(-36.75 -0.64)"/><path class="cls-18" d="M181.13,246.46c0,.31.74.36.82.23,1.55-2.63,4.71-8.73,4.93-15.09.3-8.44-7.11-17.33-12.89-17.33s-27-1.19-33.33,8.29c-.89,2.82,2.81,8.75,7.55,8.45s13.93.44,17.63,1.93,6.22,8.88,6.67,10.07c.59-3.56,0-13.63,4.59-14.37C180.9,228,181.15,241.73,181.13,246.46Z" transform="translate(-36.75 -0.64)"/><ellipse class="cls-20" cx="96.5" cy="322.67" rx="9.11" ry="3.33"/><polygon class="cls-22" points="147.76 260.15 136.28 265.22 112.83 313.44 138.43 310.22 147.76 260.15"/><path class="cls-23" d="M184.51,260.79s12.74,10.74,14.07,20.29.67,61.56.67,61.56-16,6.89-24.67.67S164.14,331.08,163,323.53,169.62,271.9,184.51,260.79Z" transform="translate(-36.75 -0.64)"/><path class="cls-23" d="M173.47,266.19s-10.89,16.23-12,27.34-2.33,18.22-2.33,18.22l-21,7.33-7.33-2s16.44-5.33,22.66-14.66C158.14,291.08,165.25,269.31,173.47,266.19Z" transform="translate(-36.75 -0.64)"/><path class="cls-24" d="M186.81,272.64s-5.34.22-10.45,14-9.55,24.22-15.78,24.89-22.22,8.22-22.22,8.22v6.67a72.83,72.83,0,0,0,29.78-2.67c15.55-4.89,23.33-27.56,23.33-33.33S193.92,273.53,186.81,272.64Z" transform="translate(-36.75 -0.64)"/><path class="cls-25" d="M101.42,409.68l.44,4.56s-4.11.63-6.11.13-2.33-.25-2.33-1.13V409.8Z" transform="translate(-36.75 -0.64)"/><path class="cls-25" d="M138.34,411.09l.44,4.57s-4.11.62-6.11.12-2.33-.25-2.33-1.13v-3.44Z" transform="translate(-36.75 -0.64)"/><polygon class="cls-26" points="91.69 326.59 88.28 288.74 46.87 288.89 50.94 327.56 91.69 326.59"/><rect class="cls-27" x="87.77" y="327.01" width="65.93" height="3.26" transform="translate(204.71 656.64) rotate(-180)"/><path class="cls-28" d="M105.89,307.23s-3.31-1.22-3.48,2.2c-.14,3.69,2.38,3.88,3,3.86s3.44.11,3.53-1c0,0-3.8-1.87.64-4.21C109.6,308.09,109.33,306.25,105.89,307.23Z" transform="translate(-36.75 -0.64)"/><path class="cls-28" d="M106.25,307.3s.06-.87-.22-1.11a1.8,1.8,0,0,0-.2.22s.28.81.17.95A1.49,1.49,0,0,1,106.25,307.3Z" transform="translate(-36.75 -0.64)"/><path class="cls-24" d="M233.58,332.75s5.67-4.89,8.67-1.67,1.22,8.11-.56,9.89-10.22,8.78-10.22,8.78Z" transform="translate(-36.75 -0.64)"/><path class="cls-29" d="M240.17,337.78s1.39-6.06-2.84-4.22a18.57,18.57,0,0,0-6.5,4.61l2.31,4.77Z" transform="translate(-36.75 -0.64)"/><path class="cls-24" d="M233,352.86H214.36l-1.11-27.33h21.33S233,353.53,233,352.86Z" transform="translate(-36.75 -0.64)"/><polygon class="cls-1" points="187.52 324.12 187.45 332.72 186.92 332.88 186.92 324.18 187.52 324.12"/><path class="cls-30" d="M223.61,327.94" transform="translate(-36.75 -0.64)"/><polygon class="cls-1" points="189.1 332.24 184.78 332.65 185.57 338.56 189.63 337.92 189.1 332.24"/><path class="cls-31" d="M228.06,292.49s8.6,4.3,6.67,8.74-11.85,7-11.85,7-.89,8.45,1.18,10.52c-2.66-3.11-6.07-8.89-3.55-12s11-3,11.11-7C230.29,295.6,228.06,292.05,228.06,292.49Z" transform="translate(-36.75 -0.64)"/><path class="cls-32" d="M558.45,74.07s27.72,5.08,67.56,53.59c-60-23.17-53.49-21.77-78.54-43.36A48.63,48.63,0,0,1,558.45,74.07Z" transform="translate(-36.75 -0.64)"/><polygon class="cls-33" points="521.7 73.43 517.21 69.72 510.03 84.05 513.25 85.69 521.7 73.43"/><polygon class="cls-34" points="518.76 70.36 510.87 60.59 497.79 81.63 509.48 84.36 518.76 70.36"/><path class="cls-35" d="M549.31,62.86s-33.12-35-48.87-32.93c-.43,4.89-5.53,22-14.8,23.86,3.18,4.27,31.19,30.16,53.19,29.41C543.44,76.15,549.31,62.86,549.31,62.86Z" transform="translate(-36.75 -0.64)"/><path class="cls-36" d="M505.47,29.68s-15.84-3.47-28.55,1.91c1,8,1.66,17.23,10.92,25.49C492.29,50.47,505.47,29.68,505.47,29.68Z" transform="translate(-36.75 -0.64)"/><path class="cls-37" d="M571.42,68.49,552.64,49.9,535,52.09l18.45,16.25S560,64.73,571.42,68.49Z" transform="translate(-36.75 -0.64)"/><path class="cls-38" d="M553,100.21l-25.55-6.78L520.4,77.11l23.94,7S543.94,92.24,553,100.21Z" transform="translate(-36.75 -0.64)"/><path class="cls-39" d="M559.79,83.6S535.1,63.45,529.84,64.34C532.75,68,551.4,81.35,559.79,83.6Z" transform="translate(-36.75 -0.64)"/><ellipse class="cls-40" cx="521.82" cy="59.68" rx="5.11" ry="5" transform="translate(-39.97 72.92) rotate(-8.04)"/><circle class="cls-41" cx="470.21" cy="50.03" r="8.22"/><path class="cls-42" d="M545.36,72.65,544,75.18s12.59,8.27,15.84,8.42C558.77,82.44,545.36,72.65,545.36,72.65Z" transform="translate(-36.75 -0.64)"/><circle class="cls-43" cx="671.81" cy="201.39" r="35.05"/><ellipse class="cls-44" cx="707.65" cy="197.67" rx="16.16" ry="56.08" transform="translate(54.68 597.16) rotate(-48.6)"/><path class="cls-45" d="M743.61,207.26s-19.52,13.47-36.7-.69-13.47-32-12.37-37.25c12.51-2.61,21.72-4.81,35.05,4.4S744.43,198.05,743.61,207.26Z" transform="translate(-36.75 -0.64)"/><polygon class="cls-46" points="341.8 145.45 343.11 155.06 309.89 144.15 341.8 145.45"/><polygon class="cls-47" points="342.43 145.2 350.56 140.79 301.72 144.23 331.58 155.88 337.6 149.1 316.82 144.1 342.43 145.2"/><path class="cls-48" d="M473.25,81.82" transform="translate(-36.75 -0.64)"/><path class="cls-48" d="M395.62,129.23" transform="translate(-36.75 -0.64)"/></svg>