<?xml version="1.0" encoding="utf-8"?>
<!-- Generator: Adobe Illustrator 26.0.2, SVG Export Plug-In . SVG Version: 6.00 Build 0)  -->
<svg version="1.1" id="Calque_1" xmlns="http://www.w3.org/2000/svg" xmlns:xlink="http://www.w3.org/1999/xlink" x="0px" y="0px"
	 viewBox="0 0 350 350" style="enable-background:new 0 0 350 350;" xml:space="preserve">
<style type="text/css">
	.st0{fill:#494395;}
</style>
<g>
	<path class="st0" d="M102.8,176.8c0.3,3,1.8,5.6,3.9,8L222,304.9c2.7,3,6.2,4.8,10.1,5.1c3.9,0.3,7.7-1.2,10.7-3.9
		s4.5-6.5,4.5-10.4c0-3.9-1.8-7.7-4.5-10.4L137,175L242.9,64.7c3-2.7,4.5-6.5,4.5-10.4s-1.5-7.7-4.5-10.4c-3-2.7-6.8-4.2-10.7-3.9
		c-3.9,0.3-7.7,2.1-10.1,5.1L107,165.2C103.7,168.2,102.2,172.6,102.8,176.8L102.8,176.8z"/>
</g>
</svg>
