<svg id="Calque_1" data-name="Calque 1" xmlns="http://www.w3.org/2000/svg" viewBox="0 0 340.46 390.2"><defs><style>.cls-1{fill:#d8b5a0;}.cls-1,.cls-2,.cls-3,.cls-4,.cls-6,.cls-7,.cls-9{stroke:#1d1d1b;}.cls-1,.cls-2,.cls-3,.cls-4,.cls-5,.cls-6,.cls-7,.cls-8,.cls-9{stroke-miterlimit:10;}.cls-2,.cls-7,.cls-9{fill:#1d1d1b;}.cls-2{opacity:0.13;}.cls-3{fill:#402a22;}.cls-4{fill:none;}.cls-5{fill:#080605;stroke:#080605;}.cls-6{fill:#fff;}.cls-7{opacity:0.8;}.cls-8{fill:#202020;stroke:#202020;}</style></defs><path class="cls-1" d="M162.83,193.39s7.41-2.67,10.37-6.52,2.07-12.74,2.07-12.74l53,6.81s-2.37,7.41,2.07,11a96.27,96.27,0,0,0,11.56,7.4L229.5,218.57l-47.41.3Z" transform="translate(-55.04 -30.1)"/><path class="cls-2" d="M174.83,183.31s1-3.55.89-10.51c0,0,28.44,15.55,32.59,15.7s18.37-4.89,18.37-4.89,1,6.37,2.22,8.15c-4.59,2.67-18.66,7-24.74,4.74S174.83,183.31,174.83,183.31Z" transform="translate(-55.04 -30.1)"/><path class="cls-3" d="M143.79,125.54s-8,1.86-5-39c0,0,4.45-21.84,9.22-26.31l2.12,3.22s.44-7.94,5.77-8.31c.34,1.86,1,6.58,1,6.58S163,41.89,167.79,42.14,174.57,49,174.57,49l2.89-7,5.89,4.84s.89-4,3.22-4.71,5.33,1.74,5.33,1.74-.77-2.86,3.23-4.22,6.44,2.11,6.44,2.11V30.72S236,38,249.79,62.66c3.85,8.27,7.26,24.16,5.93,30.28s-89.63,55.71-89.63,55.71Z" transform="translate(-55.04 -30.1)"/><path class="cls-1" d="M163.42,154s.3,11.26,6.22,16.3S201.05,191,207.27,191s16.6-.89,32.89-13.63,14.82-23.71,15.41-28.45,3.85-41.18,0-54.81-2.07-10.37-14.52-8.59-19.26,5.63-28.44,4.14-35-9.48-42.37-6.22-4.15,24-4.15,24-3.26,13.63-6.22,18.67a82.11,82.11,0,0,0,2.88,12.59s-1.7,1.85-3.48,1-2.66-10.88-5.63-12.37-4.44-5.63-7.7-5.63c-2.37.6-4.59,9.78-4.59,9.78s-1.78,9.91.05,12.3,6.84,7.22,9.28,8.5,8.56,5.33,10.72,5.17a24.55,24.55,0,0,0,2-3.23" transform="translate(-55.04 -30.1)"/><path class="cls-4" d="M159.13,152.87l-5.78-5.78c-.89-.89,2.22-4.44,2.89-6s-8.23-12.66-10-13.55-2.89,5.33-2.89,5.33" transform="translate(-55.04 -30.1)"/><path class="cls-4" d="M144.68,142.2s2.89-11.66,4.45-11.66" transform="translate(-55.04 -30.1)"/><path class="cls-4" d="M150.46,142.43c0-.67-.72-8.23,1.72-8.23" transform="translate(-55.04 -30.1)"/><path class="cls-4" d="M197.94,165.24s.3,4.15,19.11,3.7" transform="translate(-55.04 -30.1)"/><path class="cls-4" d="M218.68,139s-1.18,5.63,1.63,7.7,5.19,4.89,4.15,6.22c-.15,1.34.29,3.56-5.19,3.71" transform="translate(-55.04 -30.1)"/><path class="cls-5" d="M174.53,117.83s6.52-12.89,27.26-9.63c1.93.6,4.45,3.85-.15,4S185.79,110.28,174.53,117.83Z" transform="translate(-55.04 -30.1)"/><path class="cls-5" d="M255.05,117.39s-6.52-12.89-27.26-9.63c-1.92.59-4.44,3.85.15,4S243.79,109.83,255.05,117.39Z" transform="translate(-55.04 -30.1)"/><path class="cls-6" d="M182.79,129.43s1.71,3.62,5.19,3.77,15.44-.11,15.44-.11,4.15-4.74,4-6.07c-2.81-1.93-9.92-7.85-9.92-7.85l-13,.44L179,122.13Z" transform="translate(-55.04 -30.1)"/><path class="cls-5" d="M176.26,122.34c1.38-1.19,17.35-14.37,29.77,3.42a.13.13,0,0,1-.17.19c-4-2.59-8.15-7-16.81-6.34-9,.74-7.26,5.48-7.26,5.48l1,3.35a.32.32,0,0,1-.53.31l-6-6.23A.12.12,0,0,1,176.26,122.34Z" transform="translate(-55.04 -30.1)"/><path class="cls-5" d="M190.68,132.35s-2.67-9.18,4.74-8.89,5.48,9,5.48,9Z" transform="translate(-55.04 -30.1)"/><path class="cls-6" d="M248.63,127.18s-1,3.78-4,4.27-13.25,1.45-13.25,1.45-4.11-4.29-4.14-5.63c2.19-2.2,7.59-8.8,7.59-8.8l11.23-.87,5,2Z" transform="translate(-55.04 -30.1)"/><path class="cls-5" d="M253.4,119.49c-1.32-1-16.55-12.53-25.11,6.39-.06.12.07.25.16.17,3.11-3,6.17-7.82,13.67-8,7.83-.17,6.86,4.71,6.86,4.71l-.44,3.43c0,.33.32.51.49.25l4.4-6.79A.13.13,0,0,0,253.4,119.49Z" transform="translate(-55.04 -30.1)"/><path class="cls-5" d="M242.21,130.88s1.21-9.39-5.1-8.35-3.64,9.53-3.64,9.53Z" transform="translate(-55.04 -30.1)"/><polygon class="cls-7" points="49.66 305.68 65 249.24 61.44 303.46 49.66 305.68"/><path class="cls-8" d="M106.53,418.28l170.67,1.18s-3-39.26-.3-63.92L300.68,354s10-111.11-9.55-126.67-52-29.33-52-29.33-4.89,20.45-30.23,20.45-39.55-14.67-44-26.67c-16.44,7.11-84.44,33.33-87.55,38.22S54.68,303.76,55.57,335.31c11.56,1.34,50.67-3.11,50.67-3.11l13.11-53.33S113.05,399.24,106.53,418.28Z" transform="translate(-55.04 -30.1)"/><path class="cls-9" d="M158.53,194.72S176.9,228.65,208.61,226s36.29-19.41,38.66-23.85a54.82,54.82,0,0,1-8.14-4.15s-2.52,20.74-34.67,20.59c-31.56-2.52-39.56-26.81-39.56-26.81Z" transform="translate(-55.04 -30.1)"/><path class="cls-1" d="M343.78,356.5l14.05-17.67-7.44.56-6.85,17A.14.14,0,0,0,343.78,356.5Z" transform="translate(-55.04 -30.1)"/><path class="cls-7" d="M113.59,377.12l-2.67,19.56s50.67-25.78,60-35.56c9.78,5.33,65.78,32.22,65.78,32.22l38.44-8.89,2.45-29.77,23.33-.67,2.89-44L168.25,337.57Z" transform="translate(-55.04 -30.1)"/><path class="cls-7" d="M148.92,400.23l19.56,19.11,10.44-.44S154.7,400.68,148.92,400.23Z" transform="translate(-55.04 -30.1)"/><path class="cls-7" d="M270.92,418s5.33-28.44,3.33-34.22c2,6.44,3.56,36,3.56,36l-6.67-.22Z" transform="translate(-55.04 -30.1)"/><path class="cls-7" d="M63.25,383.34s48.71,6.23,129-50.66c5.78,1.77,4.45,2.66,4.45,2.66s-78.52,49.78-108.15,56C82.92,392.23,62.37,391.64,63.25,383.34Z" transform="translate(-55.04 -30.1)"/><path class="cls-1" d="M61.27,335.8S54.61,386.91,67.5,390s15.33,5.78,41.11-4.66,91.11-50.45,91.11-50.45l-9.11.67s22.22-1.11,28-4.89c.89-.22,9.48,2.3,14.81,7.19a34.08,34.08,0,0,0,6.52.59s.89-3.71-2.07-4.89c-1.78-2.22-7.41-10.82-7.41-10.82l-15.26.6,16.15-.45s4.59,7.71,5.18,8,6.08-.44,6.08-.44,3.11-3,.15-4.89-4.45-2.67-4.45-2.67l-4.74-4.74-.3-.29-19,1,20.15-1s4.44,6.7,8,6.4,2.51-6.37.66-7.52-11.37-9.11-11.37-9.11l-24,4.89,24.67-5s8.67,8.14,12,9.7,5.18-2.45,1.7-5.85-13.26-11.93-13.26-11.93-7.4-.59-8.81.37-32.74,14.22-41,15.71-65.78,15.25-71.55,17.33S88.39,340.39,82.9,345c9.63-6.08,22.37-8.89,23.11-13.48S61.27,335.8,61.27,335.8Z" transform="translate(-55.04 -30.1)"/><polygon class="cls-6" points="141.49 306.58 181.02 319.06 179.71 325.69 137.94 309.69 141.49 306.58"/><polyline class="cls-6" points="179.71 325.69 321.49 312.81 339.86 205.55 204.75 213.84 180.76 319.41 180.31 321.4 185.27 300.36 141.49 306.58 180.31 321.4 179.27 326.14"/><path class="cls-1" d="M333.33,350.94l8.33-11.66c1.11-1.56-.66-28.56-2.05-29s-3.11.61-4.72,2.11-1.17,11.11-1.17,11.11" transform="translate(-55.04 -30.1)"/><path class="cls-1" d="M343.72,348.11s4.55-9.61,5-12.11c.4-2-.4-20-2.33-27.78-.5-2-1.34-3.29-1.94-3.5-2.95-1-5.39,5.06-5.39,5.06" transform="translate(-55.04 -30.1)"/><path class="cls-1" d="M346.5,308.58s3.66-3.64,4.89-1.47,4.27,27,1.77,32.89a68,68,0,0,0-3.05,8.05l-3.39,6.34s-31.78,15.55-36.45,19.78-33.33,23.77-33.33,23.77l-2.26-46.18s24.89-2,25.56-2l.26,6.18-18,7.11s18.66-6.66,21.55-9.33,13.11-9.11,16.45-9.78c0,0,7.33-3.33,8.89-13.33s7.33-7.33,6.88-4-2,17.11-5.77,19.78-6.89,4.66-6.89,4.66" transform="translate(-55.04 -30.1)"/><path class="cls-4" d="M338.87,310.09s3.09-1.85,2.74,16.82v13.26c0,1.4-7.34,10.14-7.34,10.14" transform="translate(-55.04 -30.1)"/><path class="cls-4" d="M346.42,308.09s3.48,24.52,2.08,29a90.61,90.61,0,0,1-4.37,10.52" transform="translate(-55.04 -30.1)"/><path class="cls-2" d="M287.66,354.9s6.22,9.48,55.41.29c-2.37,2.08-35.26,17.78-41.78,24.89-9.18,6.52-27.72,20.64-27.72,20.64l.76-49.38Z" transform="translate(-55.04 -30.1)"/><path class="cls-8" d="M56.35,324.54l51.55-.23-1.66,8.45s-48.34,3.78-50.67,2.55C55.9,332.31,56.35,324.54,56.35,324.54Z" transform="translate(-55.04 -30.1)"/></svg>